PathFileType	4	(X/Y/Z)	C:\Users\u0145647\OneDrive - KU Leuven\KU Leuven\c3d2osim\CP4\T0\Data\Processed\ViconC3D_CP4_2\CP4_T0_16_gapFilled.trc
DataRate	CameraRate	NumFrames	NumMarkers	Units	OrigDataRate	OrigDataStartFrame	OrigNumFrames
100.000000	100.000000	11	47	mm	100.000000	55	433
Frame#	Time	C7			T10			CLAV			STRN			LSHO			RSHO			RBAK			LASI			RASI			LPSI			RPSI			LLAT			RLAT			LF1			LF2			LF3			LTHI			LKNE			LMEK			RF1			RF2			RF3			RTHI			RKNE			RMEK			LT1			LT2			LT3			LTIB			LANK			LMM			RT1			RT2			RT3			RTIB			RANK			RMM			LHEE			LSTL			LLCA			LTOE			LCM5			RHEE			RSTL			RLCA			RTOE			RCM5
		X1	Y1	Z1	X2	Y2	Z2	X3	Y3	Z3	X4	Y4	Z4	X5	Y5	Z5	X6	Y6	Z6	X7	Y7	Z7	X8	Y8	Z8	X9	Y9	Z9	X10	Y10	Z10	X11	Y11	Z11	X12	Y12	Z12	X13	Y13	Z13	X14	Y14	Z14	X15	Y15	Z15	X16	Y16	Z16	X17	Y17	Z17	X18	Y18	Z18	X19	Y19	Z19	X20	Y20	Z20	X21	Y21	Z21	X22	Y22	Z22	X23	Y23	Z23	X24	Y24	Z24	X25	Y25	Z25	X26	Y26	Z26	X27	Y27	Z27	X28	Y28	Z28	X29	Y29	Z29	X30	Y30	Z30	X31	Y31	Z31	X32	Y32	Z32	X33	Y33	Z33	X34	Y34	Z34	X35	Y35	Z35	X36	Y36	Z36	X37	Y37	Z37	X38	Y38	Z38	X39	Y39	Z39	X40	Y40	Z40	X41	Y41	Z41	X42	Y42	Z42	X43	Y43	Z43	X44	Y44	Z44	X45	Y45	Z45	X46	Y46	Z46	X47	Y47	Z47

55	0.54	1965.5	1446.1	-284.06	1994.4	1189.8	-253.6	1848.3	1368.6	-308.34	1819.4	1218.9	-307.14	1860.6	1422.7	-90.679	1967.6	1401.9	-476.49	2026.3	1364.2	-384.35	1827.8	930.09	-204.19	1882.9	924.61	-390.26	2006	975.02	-214.42	2027.1	974.54	-287.08	1860.4	1003.7	-141.32	1949.8	1000.1	-421.89	1844.1	659.43	-150.52	1855.2	704.96	-139	1876.8	656.35	-139.93	1862.8	578.48	-110.6	1880.7	454.62	-194.83	NaN	NaN	NaN	1874.8	659.51	-445.67	1866.8	696.99	-444.1	1925.3	677.06	-434.58	1850.3	604.09	-488.66	1785.7	493.07	-427.43	NaN	NaN	NaN	1986.4	303.15	-168.93	1934.5	327.79	-190.47	1976.9	347.86	-167.81	1951.9	216.21	-165.65	2088.7	88.186	-199.98	2085	103.6	-287.98	1869.9	374.69	-453.7	1826.9	396.91	-436.73	1868.9	426.94	-449.73	1892.7	309.09	-500.64	2010.9	167.27	-454.89	1994.3	175.4	-369.4	2146.6	84	-240.35	2093.2	72.782	-286	2091.1	60.724	-207.71	1974.1	49.176	-258.81	1983.7	35.862	-210.7	2058.7	189.74	-416.28	2015.4	147.55	-374.34	2018.5	143	-452	1921.7	74.499	-410.57	1946.7	67.786	-459.68
56	0.55	1949.5	1444.2	-285.59	1980.6	1187.9	-255.22	1832.6	1365.7	-309.68	1804.9	1215.7	-307.8	1844.5	1420.6	-92.486	1951.4	1399.5	-477.87	2010.5	1362.4	-385.83	1813.7	928.88	-203.59	1866.1	922.83	-390.49	1992.3	971.29	-217.36	2013.2	970.63	-290.02	1848.6	1001.9	-141.3	1933.4	997.46	-423.26	1832.4	657.82	-152.5	1842.5	702.88	-140.42	1864.2	654.52	-141.24	1848.6	576.06	-112.59	1869.9	452.41	-195.49	NaN	NaN	NaN	1851.2	659.71	-447.34	1843.8	697.57	-445.82	1902.3	676	-436.5	1825	604.63	-489.87	1757.3	496.37	-428.36	NaN	NaN	NaN	1979.4	303.2	-169.5	1926.4	326.27	-190.58	1968.7	347.69	-168.78	1947.4	215.65	-166.08	2086.9	90.766	-200.03	2082.6	105.45	-288.31	1837	375.29	-454.48	1794.7	399.34	-437.62	1838.5	427.36	-449.97	1857.3	308.65	-501.22	1968.4	161.66	-454.77	1952.1	170.12	-369.2	2145	87.837	-240.52	2091.7	75.233	-286.14	2090	63.291	-207.83	1973.3	49.06	-258.57	1983.1	36.04	-210.61	2017	181.49	-415.54	1971.2	140.79	-374.11	1974.6	136.94	-451.79	1874.2	73.124	-412.18	1899	66.199	-461.19
57	0.56	1933.4	1441.6	-287.14	1967	1185.5	-256.66	1816.8	1362.2	-310.78	1790.5	1211.8	-308.18	1828.4	1417.9	-94.052	1935.1	1396.6	-479.03	1994.7	1360	-387.3	1799.6	927.21	-202.85	1849.2	921.16	-391.08	1978.8	966.84	-220.22	1998.5	965.75	-292.97	1836.2	999.2	-141.69	1917.3	994.4	-424.71	1819.4	655.22	-154.7	1829.5	700.36	-142.23	1850.8	651.51	-142.5	1833.6	574.21	-114.34	1858	449.38	-196.99	NaN	NaN	NaN	1828.1	659.22	-448.15	1821.5	697.53	-447.64	1879.3	673.89	-438.3	1800.2	604.63	-490.75	1729.3	499.79	-428.54	NaN	NaN	NaN	1971.4	302.96	-170.36	1917.9	324.47	-191.71	1959.4	347.06	-170.02	1941.5	214.82	-166.54	2084.8	93.369	-200.38	2080	107.5	-288.74	1804.2	374.95	-454.73	1763	400.88	-438.12	1807.9	427.39	-450.01	1821.9	307.95	-501.46	1925	155.51	-454.22	1909.1	164.32	-368.75	2143	91.922	-241.01	2090	77.561	-286.31	2088.7	66.194	-208.12	1971.6	49.476	-258.78	1982.4	36.054	-210.78	1974.4	172.54	-414.89	1926.6	133.86	-373.68	1930.3	130.35	-451.48	1826.2	71.673	-412.71	1850.8	64.201	-461.93
58	0.57	1917	1438.6	-288.66	1953.4	1182.8	-258.03	1801.1	1358.4	-311.83	1776.2	1207.6	-308.73	1812.4	1414.7	-95.59	1918.5	1392.9	-480.17	1978.9	1357.1	-388.88	1785.8	924.98	-202.29	1832.3	919.24	-391.9	1965.1	961.64	-223.13	1984.1	960.42	-295.93	1825.7	996.02	-141.47	1901.6	991.24	-425.98	1806.2	652.55	-156.32	1816.4	697.12	-143.8	1837.7	648.46	-143.66	1818.8	571	-115.88	1844.8	445.77	-198.43	NaN	NaN	NaN	1805.4	658.58	-450.08	1799.6	696.96	-449.32	1856.7	671.99	-440	1775.9	604.57	-491.54	1702.6	502.52	-428.95	NaN	NaN	NaN	1962.7	302.36	-171.71	1908.9	322.48	-193.36	1949.3	346.09	-171.35	1936.4	213.17	-167.64	2082.8	96.274	-200.99	2077.5	110.06	-289.35	1772	374.64	-455.45	1732.1	402.22	-438.21	1778	426.5	-450	1785.9	306.24	-501.42	1880.6	148.58	-453.64	1865.6	158.28	-368.12	2140.7	96.239	-241.68	2088.2	80.28	-286.85	2087.3	69.092	-208.52	1970.6	49.587	-259.03	1982.1	36.204	-211.15	1931.1	163	-414.53	1881.8	126.88	-373.12	1884.6	123.02	-451.5	1777.8	70.312	-412.15	1801.9	62.033	-461.71
59	0.58	1900.8	1435.6	-290.14	1939.8	1179.9	-259.17	1785.6	1353.8	-312.35	1761.8	1203	-308.75	1796.3	1411.1	-96.981	1902.1	1388.9	-481.53	1963.2	1353.8	-390.5	1770.9	922.18	-201.99	1815.7	917.43	-392.89	1951.2	955.87	-226.03	1969.6	954.66	-298.85	1813.9	991.9	-141.89	1886.3	987.92	-427.35	1793	648.68	-158.19	1803.1	693.29	-145.2	1824	644.06	-144.98	1804.6	567.05	-117.26	1831.8	441.8	-199.82	NaN	NaN	NaN	1782.5	658.37	-451.56	1778.2	696.39	-450.96	1834.7	670.03	-441.86	1752.4	603.8	-491.97	1676.9	504.54	-428.88	NaN	NaN	NaN	1953.8	301.48	-173.08	1899.4	319.88	-194.85	1939	344.78	-172.85	1930.2	211.11	-168.66	2080.5	99.558	-201.31	2074.4	112.25	-289.77	1739.4	372.89	-454.91	1701.2	402.82	-438.08	1748.6	424.59	-450.1	1749.5	303.73	-501.12	1836	141.32	-453.14	1821.8	151.93	-367.31	2138.4	100.88	-242.5	2086.2	82.796	-287.66	2085.9	72.562	-208.77	1970.9	48.538	-259.37	1981.8	36.439	-211.43	1887.3	153.03	-414.3	1836.2	119.59	-372.48	1838.5	115.72	-450.33	1729.1	68.746	-411.11	1752.2	59.677	-460.64
60	0.59	1884.4	1432	-291.55	1926.3	1176.7	-260.17	1770	1349.1	-313.07	1747.3	1197.9	-308.73	1780.3	1407.1	-98.288	1885.6	1384.6	-482.65	1947.5	1350.1	-391.97	1755.6	919.07	-202.01	1798.9	915.57	-394.01	1936.9	949.61	-228.76	1954.8	948.66	-301.61	1801.6	987.53	-142.14	1871	984.41	-428.63	1779.5	644.23	-159.95	1789.6	688.91	-146.9	1810.7	639.78	-146.46	1790.2	562.76	-118.41	1819.2	437.49	-201.49	NaN	NaN	NaN	1761.3	657.09	-452.2	1757.1	695.35	-452.56	1813.4	667.93	-443.58	1729.7	603.3	-492.58	1652	505.8	-428.8	NaN	NaN	NaN	1944.9	300.53	-174.43	1890	316.96	-196.29	1928.6	343.21	-174.18	1924.5	210.34	-169.16	2077.9	102.61	-202	2071.9	115.05	-290.9	1707.2	370.38	-454.79	1670.8	402.98	-437.42	1719.2	421.64	-450.28	1712.9	300.47	-500.46	1790.5	133.69	-452.35	1778	145.43	-366.49	2135.8	105.65	-243.28	2084.2	85.703	-288.32	2084.3	75.683	-209.58	1970.1	48.567	-259.76	1981.4	36.571	-211.94	1842.9	142.67	-414.11	1790.8	112.57	-371.89	1791.5	108.06	-449.56	1680.1	67.948	-409.08	1702.1	57.44	-458.89
61	0.6	1868.2	1428.3	-292.84	1912.6	1173.1	-261.12	1755	1343.7	-312.85	1733.2	1192.4	-308.8	1764.3	1403.1	-99.493	1869	1379.7	-483.51	1931.8	1346	-393.43	1739	915.88	-202.42	1782.3	913.41	-395.37	1922	943.03	-231.4	1939.7	942.57	-304.16	1788.8	982.44	-142.74	1855.9	981.05	-429.8	1766.2	639.24	-161.88	1775.9	684.06	-148.75	1797.1	634.77	-147.72	1776.5	557.4	-120.14	1806.4	432.41	-203.02	NaN	NaN	NaN	1739.6	656.37	-453.87	1736.6	694.28	-453.91	1791.9	666.09	-446	1707.1	602.72	-493.19	1628.2	506.17	-428.46	NaN	NaN	NaN	1936	299.3	-175.7	1880.8	314.12	-197.69	1918.5	341.64	-175.4	1918.6	208.92	-169.7	2075.1	105.81	-202.52	2068.8	117.46	-291.44	1675.4	367.25	-454.37	1641.4	402.1	-436.4	1690.2	418.03	-450.68	1676	296.74	-499.51	1744.5	126.25	-451.68	1734.1	139.07	-365.57	2133.1	110.25	-243.88	2082.1	88.558	-288.59	2082.4	79.066	-210	1969.1	48.641	-260.16	1980.9	36.927	-212.4	1797.9	132.14	-414.22	1744.7	105.31	-370.73	1744.3	100.58	-448.72	1631	67.481	-406.31	1651.4	55.901	-456.36
62	0.61	1851.8	1424	-294.03	1898.5	1169.3	-261.92	1739.4	1338.3	-313.49	1718.5	1186.7	-308.49	1748.4	1398.7	-100.67	1852.3	1374.5	-484.42	1916.2	1341.6	-394.72	1723.5	911.55	-202.78	1765.7	911.24	-397.23	1906.4	936.29	-233.81	1924.1	936.54	-306.43	1775	976.92	-143.6	1840.8	977.72	-431.2	1752.3	633.85	-162.86	1762	678.64	-150.29	1783.5	629.41	-149.18	1762.9	552.04	-121.87	1794.9	427.81	-204.42	NaN	NaN	NaN	1718.9	654.83	-455.2	1716.3	692.96	-455.47	1771.4	664.34	-448.34	1685	602.03	-493.98	1605.5	505.74	-427.98	NaN	NaN	NaN	1927.4	298.05	-176.85	1872.5	311.15	-199.68	1908.5	339.74	-176.69	1912.8	207.49	-170.22	2072.7	108.65	-202.71	2065.9	119.7	-291.85	1644	363.6	-453.94	1612.3	400.87	-435.75	1661.8	413.31	-451.01	1639.2	292.52	-498.3	1697.9	118.66	-450.86	1690.5	132.59	-365.06	2130.3	114.6	-244.23	2080	91.048	-288.85	2080.5	82.163	-210.22	1968.2	48.566	-260.54	1980.3	37.069	-212.8	1752.8	121.71	-414.27	1698.5	98.534	-369.89	1696.4	93.221	-448	1581.9	67.725	-403.32	1600.9	54.841	-453.97
63	0.62	1835.6	1419.4	-295.11	1884.3	1165.3	-262.55	1723.5	1332.7	-313.52	1703.9	1180.8	-308.34	1732.5	1394.4	-101.55	1835.7	1369.2	-485.23	1900.3	1336.9	-395.96	1706.6	907.3	-203.45	1749	908.86	-399.1	1889.9	929.49	-235.97	1907.8	930.56	-308.33	1760.5	971.18	-144.76	1825.8	974.32	-432.47	1738.7	628.59	-164.5	1747.7	673.35	-152.11	1770	624.34	-150.68	1749.9	546.59	-123.3	1784	423.2	-205.71	NaN	NaN	NaN	1698.8	653.13	-456.28	1696.4	691.08	-456.99	1751.3	662.03	-450.53	1663.5	601	-494.81	1584	504.41	-427.57	NaN	NaN	NaN	1920	296.91	-177.88	1864.8	308.34	-200.99	1899.5	337.86	-177.86	1908.3	206.06	-170.82	2070.2	111.35	-202.87	2063.5	121.86	-292.29	1613.1	359.41	-452.97	1584.7	398.62	-434.62	1634.1	407.96	-451.37	1602.5	288.94	-496.94	1651.6	111.89	-449.94	1645.2	126.47	-363.17	2127.8	118.4	-244.48	2078.2	93.399	-289	2078.8	84.726	-210.39	1967.5	48.469	-260.68	1979.9	37.169	-213.02	1706.7	111.26	-413.78	1651.6	92.282	-368.61	1648.3	86.681	-446.84	1532.8	69.094	-400.81	1550.3	54.765	-451.48
64	0.63	1819.4	1414.8	-296.28	1869.8	1161	-263.25	1707.7	1326.7	-314.09	1689.1	1175.2	-308.42	1716.7	1390	-102.64	1818.9	1364.1	-486.16	1884.4	1332	-397.24	1688.9	903.01	-204.53	1731.8	906.56	-401.48	1872.5	922.85	-237.92	1891	924.79	-309.9	1745	965.82	-145.98	1810.6	970.74	-433.76	1725.1	623.45	-165.78	1733.3	668.72	-153.67	1756.7	619.96	-152.21	1737.4	541.58	-124.8	1775	419.02	-206.93	NaN	NaN	NaN	1678.9	651.07	-458.1	1676.8	689.09	-458.49	1731.5	659.96	-452.82	1642.7	599.41	-495.88	1563.7	502.19	-427.16	NaN	NaN	NaN	1913.7	295.85	-178.44	1858	306.12	-201.13	1892.5	336.2	-178.27	1904.3	205.27	-171.07	2068.2	113.36	-202.87	2061.3	123.73	-292.45	1583.3	354.91	-452.31	1558.3	396.17	-433.48	1607.2	402.21	-451.41	1566.9	285.43	-495.31	1605.7	105.74	-448.95	1601.4	121.03	-362.37	2125.6	121.89	-244.6	2076.7	95.58	-289.11	2077.5	87.33	-210.48	1967.3	47.819	-261.32	1979.6	37.188	-213.21	1661.1	101.66	-414.18	1604.9	86.186	-367.5	1600.5	80.905	-445.61	1484.7	71.194	-398.39	1500.7	55.945	-449.37
65	0.64	1803.2	1410.2	-297.5	1854.5	1156.6	-263.83	1691.8	1321	-315.17	1673.7	1169.7	-308.48	1701.1	1385.8	-103.48	1802	1358.8	-487.26	1868.4	1327.2	-398.56	1670.4	899.01	-206.14	1714.3	904.31	-403.7	1854.2	916.52	-239.39	1873.2	919.2	-310.99	1727.9	960.68	-147.47	1794.9	966.89	-434.88	1711.3	619.61	-167.27	1718.4	664.74	-155.33	1743.1	616.46	-153.4	1725.9	537.58	-125.86	1767.6	415.59	-207.53	NaN	NaN	NaN	1659.7	648.31	-459.41	1657.5	686.61	-460.3	1712.2	657.36	-454.7	1622.8	596.78	-496.92	1544.4	499.29	-426.82	NaN	NaN	NaN	1908.4	294.75	-178.74	1852.5	304.3	-201.2	1886.5	334.85	-178.45	1901.2	203.66	-171.03	2066.4	115.16	-203.12	2059.3	125.45	-292.35	1554.4	350.63	-451.32	1532.6	393.16	-432.55	1581.7	396.02	-451.36	1532.7	281.77	-493.9	1560.2	100.7	-447.5	1557.2	116.01	-360.8	2123.4	125.09	-244.45	2075.3	97.606	-288.94	2076	89.475	-210.37	1966.9	47.751	-261.47	1979.3	37.188	-213.25	1615.5	92.912	-412.63	1558.8	81.475	-366.17	1553.3	76.309	-444.14	1437.5	74.225	-396.74	1452.1	58.174	-447.58
